<svg width="1796" height="500" viewBox="0 0 1796 500" fill="none" xmlns="http://www.w3.org/2000/svg">
<path d="M395.089 273.106V353.516C395.089 373.576 387.967 390.728 373.723 404.973C359.478 419.217 342.326 426.339 322.266 426.339H111.886C91.8259 426.339 74.6736 419.217 60.4292 404.973C46.1847 390.728 39.0625 373.576 39.0625 353.516V143.136C39.0625 123.076 46.1847 105.924 60.4292 91.6792C74.6736 77.4347 91.8259 70.3125 111.886 70.3125H322.266C332.886 70.3125 342.747 72.4197 351.85 76.634C354.379 77.814 355.896 79.7526 356.402 82.4498C356.907 85.3155 356.149 87.7598 354.126 89.7827L341.736 102.173C340.05 103.859 338.112 104.701 335.92 104.701C335.414 104.701 334.656 104.533 333.644 104.196C329.767 103.184 325.974 102.679 322.266 102.679H111.886C100.76 102.679 91.2359 106.64 83.313 114.563C75.39 122.486 71.4286 132.01 71.4286 143.136V353.516C71.4286 364.641 75.39 374.166 83.313 382.089C91.2359 390.012 100.76 393.973 111.886 393.973H322.266C333.391 393.973 342.916 390.012 350.839 382.089C358.762 374.166 362.723 364.641 362.723 353.516V289.289C362.723 287.098 363.482 285.243 364.999 283.726L381.182 267.543C382.868 265.857 384.806 265.015 386.998 265.015C388.009 265.015 389.021 265.267 390.032 265.773C393.404 267.122 395.089 269.566 395.089 273.106ZM453.5 149.458L247.672 355.286C243.626 359.331 238.822 361.354 233.259 361.354C227.696 361.354 222.892 359.331 218.846 355.286L110.116 246.556C106.07 242.51 104.047 237.706 104.047 232.143C104.047 226.58 106.07 221.776 110.116 217.73L137.931 189.915C141.976 185.869 146.781 183.847 152.344 183.847C157.907 183.847 162.711 185.869 166.757 189.915L233.259 256.417L396.859 92.817C400.905 88.7713 405.709 86.7484 411.272 86.7484C416.835 86.7484 421.64 88.7713 425.685 92.817L453.5 120.632C457.546 124.677 459.569 129.482 459.569 135.045C459.569 140.608 457.546 145.412 453.5 149.458Z" fill="#8685E7"/>
<path d="M645.061 430.5C639.727 430.5 634.061 428.5 628.061 424.5C622.061 420.5 619.061 413.833 619.061 404.5C619.061 389.833 623.394 373.667 632.061 356C641.061 338 652.727 319.833 667.061 301.5C681.727 283.167 697.727 265.5 715.061 248.5C732.727 231.5 750.227 216.167 767.561 202.5C785.227 188.833 801.394 178.167 816.061 170.5C831.061 162.5 842.894 158.5 851.561 158.5C862.894 158.5 868.561 163.167 868.561 172.5C868.561 177.5 864.727 185.5 857.061 196.5C849.727 207.167 837.561 219.167 820.561 232.5C803.561 245.833 781.061 259 753.061 272C725.394 285 691.061 296.5 650.061 306.5C631.061 311.167 611.727 315.833 592.061 320.5C572.727 325.167 554.394 330.333 537.061 336C520.061 341.667 505.394 348.167 493.061 355.5C481.061 362.833 472.727 371.5 468.061 381.5C467.394 383.167 466.394 383.833 465.061 383.5C464.061 383.167 464.227 381.667 465.561 379C469.561 369.667 477.561 361.333 489.561 354C501.894 346.333 516.561 339.5 533.561 333.5C550.894 327.5 569.394 322 589.061 317C608.727 311.667 628.227 306.667 647.561 302C680.894 294 709.561 284.667 733.561 274C757.894 263 778.227 251.833 794.561 240.5C810.894 229.167 823.894 218.5 833.561 208.5C843.561 198.167 850.727 189.667 855.061 183C859.394 176 861.561 171.667 861.561 170C861.561 165.333 858.894 163 853.561 163C845.561 163 835.561 166.667 823.561 174C811.894 181.333 799.061 191.167 785.061 203.5C771.061 215.833 756.727 229.667 742.061 245C727.727 260.333 713.727 276.167 700.061 292.5C686.727 308.833 674.727 324.667 664.061 340C653.394 355.333 644.894 369.167 638.561 381.5C632.561 393.5 629.561 403 629.561 410C629.561 417.333 631.227 421.833 634.561 423.5C638.227 424.833 642.227 425.5 646.561 425.5C654.561 425.5 662.894 422.667 671.561 417C680.227 411 688.394 403.333 696.061 394C704.061 384.667 710.727 374.833 716.061 364.5C721.394 353.833 724.894 344 726.561 335C727.227 332.333 728.394 331.5 730.061 332.5C732.061 333.167 732.894 336.333 732.561 342C732.227 349.333 729.394 358.167 724.061 368.5C718.727 378.5 711.727 388.167 703.061 397.5C694.394 406.833 685.061 414.667 675.061 421C665.061 427.333 655.061 430.5 645.061 430.5ZM443.061 430.5C431.061 430.5 421.394 428.333 414.061 424C406.394 419.333 402.561 412.833 402.561 404.5C402.561 400.167 404.227 396.5 407.561 393.5C410.561 390.167 414.727 388.5 420.061 388.5C426.727 388.5 430.061 391.167 430.061 396.5C430.061 400.5 428.894 403.167 426.561 404.5C423.894 405.833 421.727 406.5 420.061 406.5C416.727 406.5 414.394 406.167 413.061 405.5C411.394 404.833 410.561 404.5 410.561 404.5C410.561 407.833 412.227 412.167 415.561 417.5C418.561 422.5 426.227 425 438.561 425C451.894 425 464.727 421.333 477.061 414C489.727 406.333 501.894 396.333 513.561 384C525.561 371.333 537.227 357.667 548.561 343C560.227 328 571.894 313.167 583.561 298.5C592.894 286.5 602.894 274.333 613.561 262C624.227 249.667 635.061 238.167 646.061 227.5C657.061 216.5 667.394 207.333 677.061 200C679.727 198 682.061 196.667 684.061 196C686.394 195.333 687.227 195.833 686.561 197.5C686.227 198.5 682.561 201.833 675.561 207.5C668.894 213.167 660.394 219.5 650.061 226.5C639.727 233.5 628.894 239.667 617.561 245C606.227 250.333 595.894 253 586.561 253C579.227 253 573.561 251.333 569.561 248C565.894 244.667 564.061 240 564.061 234C564.061 226.333 565.894 219.667 569.561 214C573.561 208.333 577.894 203.5 582.561 199.5C587.561 195.5 591.894 192 595.561 189C599.561 186 601.561 183 601.561 180C601.561 175.333 598.894 172.167 593.561 170.5C588.561 168.5 582.561 167.5 575.561 167.5C562.561 167.5 551.227 170 541.561 175C532.227 179.667 525.561 184.333 521.561 189C519.561 191 517.894 191.5 516.561 190.5C515.227 189.167 515.227 187.833 516.561 186.5C518.227 184.5 521.727 181.667 527.061 178C532.394 174.333 539.227 171 547.561 168C555.894 164.667 565.227 163 575.561 163C578.561 163 582.727 163.5 588.061 164.5C593.727 165.167 598.727 167 603.061 170C607.727 173 610.061 178.167 610.061 185.5C610.061 194.5 608.061 201.833 604.061 207.5C600.061 213.167 595.561 217.833 590.561 221.5C585.561 224.833 581.061 227.667 577.061 230C573.061 232.333 571.061 235 571.061 238C571.061 240.333 572.561 242.667 575.561 245C578.561 247 582.894 248 588.561 248C597.894 248 607.561 245.333 617.561 240C627.894 234.667 638.061 228 648.061 220C658.394 212 668.394 203.833 678.061 195.5C687.727 186.833 696.561 179.333 704.561 173C712.894 166.333 720.227 162.167 726.561 160.5C728.227 159.833 729.394 159.833 730.061 160.5C731.061 160.833 730.227 161.833 727.561 163.5C718.227 168.5 707.894 177.167 696.561 189.5C685.561 201.5 673.727 215.667 661.061 232C648.394 248.333 635.061 265.5 621.061 283.5C607.394 301.5 593.227 319.167 578.561 336.5C564.227 353.833 549.561 369.667 534.561 384C519.561 398 504.394 409.333 489.061 418C473.727 426.333 458.394 430.5 443.061 430.5ZM887.896 338.5C886.563 341.167 884.563 343.5 881.896 345.5C879.563 347.5 877.73 348.833 876.396 349.5C875.396 349.833 875.73 348.833 877.396 346.5C883.396 339.167 887.23 332.333 888.896 326C890.896 319.667 890.896 314.667 888.896 311C887.23 307 883.896 305 878.896 305C872.23 305 864.396 307.667 855.396 313C846.396 318.333 837.063 325.333 827.396 334C818.063 342.667 809.23 352 800.896 362C792.896 371.667 786.396 381.167 781.396 390.5C776.396 399.5 773.896 407.333 773.896 414C773.896 419 774.896 422.167 776.896 423.5C778.896 424.833 780.896 425.5 782.896 425.5C790.563 425.5 799.396 422 809.396 415C819.73 407.667 830.23 398.5 840.896 387.5C851.563 376.5 861.73 365.333 871.396 354C881.063 342.333 889.396 331.833 896.396 322.5C903.73 313.167 908.73 306.833 911.396 303.5C915.063 304.833 919.396 305.333 924.396 305C929.73 304.667 934.23 304.333 937.896 304C937.23 305 933.73 309.167 927.396 316.5C921.396 323.833 914.063 332.667 905.396 343C897.063 353 888.563 363.333 879.896 374C871.563 384.667 864.563 394 858.896 402C853.23 410 850.396 415.333 850.396 418C850.396 421.333 851.063 423.5 852.396 424.5C854.063 425.167 856.563 425.5 859.896 425.5C863.896 425.167 869.73 423.333 877.396 420C885.063 416.333 894.896 409.333 906.896 399C918.896 388.667 933.396 373.333 950.396 353C950.396 353 951.063 353.5 952.396 354.5C954.063 355.5 954.896 356 954.896 356C934.896 379.333 916.396 397.667 899.396 411C882.396 424 866.896 430.5 852.896 430.5C845.563 430.5 840.563 429.333 837.896 427C835.563 424.667 834.396 421.333 834.396 417C834.396 413.667 835.73 409.667 838.396 405C841.396 400 844.73 395.167 848.396 390.5C852.063 385.833 855.063 382.167 857.396 379.5C857.396 379.5 857.063 379.333 856.396 379C855.73 378.667 855.396 378.5 855.396 378.5C847.73 387.833 839.563 396.5 830.896 404.5C822.23 412.5 813.563 418.833 804.896 423.5C796.563 428.167 788.396 430.5 780.396 430.5C772.063 430.5 766.23 428.5 762.896 424.5C759.563 420.167 757.896 413.667 757.896 405C757.896 396.667 760.563 386.667 765.896 375C771.23 363 778.896 351.333 788.896 340C798.896 328.333 810.896 318.667 824.896 311C839.23 303.333 855.23 299.5 872.896 299.5C881.563 299.5 887.563 301.167 890.896 304.5C894.23 307.5 895.73 311.167 895.396 315.5C895.063 319.833 894.063 324.167 892.396 328.5C890.73 332.833 889.23 336.167 887.896 338.5ZM957.283 430.5C950.95 430.5 945.117 428.667 939.783 425C934.117 421 931.283 414.833 931.283 406.5C931.283 397.833 934.617 386.333 941.283 372C947.617 357.667 956.45 341.667 967.783 324C979.117 306.333 991.783 288.333 1005.78 270C1020.12 251.333 1034.95 233.5 1050.28 216.5C1065.95 199.167 1081.28 183.667 1096.28 170C1111.28 156 1125.12 145 1137.78 137C1150.45 128.667 1161.12 124.5 1169.78 124.5C1175.45 124.833 1179.12 126 1180.78 128C1182.78 129.667 1183.78 132.333 1183.78 136C1183.78 147.333 1180.28 159 1173.28 171C1166.62 183 1157.62 194.833 1146.28 206.5C1134.95 217.833 1122.62 228.5 1109.28 238.5C1095.95 248.5 1082.62 257.333 1069.28 265C1056.28 272.667 1044.28 278.667 1033.28 283C1022.62 287.333 1014.45 289.5 1008.78 289.5C1005.12 289.5 1002.95 288.5 1002.28 286.5C1001.62 284.167 1003.78 283 1008.78 283C1020.45 283 1033.62 279.333 1048.28 272C1063.28 264.333 1078.28 254.667 1093.28 243C1108.28 231 1122.12 218.333 1134.78 205C1147.45 191.333 1157.62 178.5 1165.28 166.5C1173.28 154.5 1177.28 144.667 1177.28 137C1177.28 131.667 1174.62 129 1169.28 129C1163.95 129 1156.45 133.167 1146.78 141.5C1137.12 149.5 1126.12 160.333 1113.78 174C1101.78 187.667 1088.95 203 1075.28 220C1061.62 236.667 1047.95 253.667 1034.28 271C1019.95 289.333 1005.62 307.333 991.283 325C977.283 342.667 965.617 358.833 956.283 373.5C946.95 388.167 942.283 400.5 942.283 410.5C942.283 415.5 943.617 419.333 946.283 422C948.617 424.333 952.617 425.5 958.283 425.5C969.617 425.5 980.45 422.5 990.783 416.5C1001.12 410.5 1010.28 402.833 1018.28 393.5C1026.28 383.833 1032.62 373.833 1037.28 363.5C1041.95 352.833 1044.28 343 1044.28 334C1044.28 332 1043.62 328.5 1042.28 323.5C1041.28 318.167 1041.28 313.333 1042.28 309C1043.62 304.667 1047.45 302.5 1053.78 302.5C1057.12 302.5 1059.78 303.833 1061.78 306.5C1063.78 308.833 1064.78 311.833 1064.78 315.5C1064.78 327.833 1061.78 340.667 1055.78 354C1050.12 367.333 1042.28 379.833 1032.28 391.5C1022.28 403.167 1010.78 412.667 997.783 420C985.117 427 971.617 430.5 957.283 430.5ZM1055.78 393C1050.12 393 1046.12 391.333 1043.78 388C1041.78 384.667 1040.78 381.167 1040.78 377.5C1040.78 373.5 1040.78 370.5 1040.78 368.5C1040.78 368.5 1041.78 368.333 1043.78 368C1045.78 367.333 1046.78 366.833 1046.78 366.5C1046.78 367.833 1046.62 370.333 1046.28 374C1045.95 377.333 1046.28 380.5 1047.28 383.5C1048.62 386.5 1051.45 388 1055.78 388C1060.78 388 1065.95 386.333 1071.28 383C1076.95 379.333 1082.28 375.167 1087.28 370.5C1092.28 365.833 1096.28 361.667 1099.28 358C1102.62 354 1104.45 351.5 1104.78 350.5C1104.78 350.5 1105.45 351 1106.78 352C1108.12 353 1108.78 353.5 1108.78 353.5C1108.12 354.5 1105.95 357.167 1102.28 361.5C1098.95 365.5 1094.62 370 1089.28 375C1084.28 379.667 1078.78 383.833 1072.78 387.5C1067.12 391.167 1061.45 393 1055.78 393ZM1092.6 430.5C1087.94 430.5 1082.77 429.167 1077.1 426.5C1071.1 424.167 1068.1 420.167 1068.1 414.5C1068.1 407.5 1071.27 398.667 1077.6 388C1083.94 377.333 1091.77 366.333 1101.1 355C1110.1 343.667 1118.94 333 1127.6 323C1136.27 313 1142.77 305.167 1147.1 299.5C1150.77 299.833 1155.1 300 1160.1 300C1165.44 300 1170.1 299.833 1174.1 299.5C1169.44 305.167 1163.27 312.333 1155.6 321C1148.27 329.667 1140.44 339 1132.1 349C1124.1 358.667 1116.27 368.167 1108.6 377.5C1101.27 386.833 1095.27 395.167 1090.6 402.5C1085.94 409.833 1083.6 415.167 1083.6 418.5C1083.6 420.833 1084.6 422.5 1086.6 423.5C1088.6 424.5 1091.94 425 1096.6 425C1104.6 425 1113.44 422 1123.1 416C1133.1 409.667 1142.77 402.167 1152.1 393.5C1161.44 384.833 1169.77 376.667 1177.1 369C1184.44 361 1189.6 355.167 1192.6 351.5L1196.6 355C1193.6 358.333 1188.44 364.167 1181.1 372.5C1174.1 380.5 1165.6 389 1155.6 398C1145.94 407 1135.6 414.667 1124.6 421C1113.94 427.333 1103.27 430.5 1092.6 430.5ZM1192.6 261.5C1188.6 261.5 1185.6 260.333 1183.6 258C1181.6 255.333 1180.6 252.333 1180.6 249C1180.6 245.333 1182.6 241.5 1186.6 237.5C1190.6 233.5 1194.77 231.5 1199.1 231.5C1203.77 231.5 1207.1 232.833 1209.1 235.5C1211.1 237.833 1212.1 240.167 1212.1 242.5C1212.1 247.5 1210.1 252 1206.1 256C1202.1 259.667 1197.6 261.5 1192.6 261.5ZM1291.96 210C1294.96 211.333 1299.29 212 1304.96 212C1310.96 211.667 1315.63 211.167 1318.96 210.5C1308.29 225.167 1296.46 241.333 1283.46 259C1270.46 276.667 1257.29 294.333 1243.96 312C1230.96 329.333 1218.79 345.667 1207.46 361C1196.46 376 1187.63 388.667 1180.96 399C1174.29 409.333 1170.96 415.833 1170.96 418.5C1170.96 420.5 1172.13 422 1174.46 423C1176.46 424 1179.13 424.5 1182.46 424.5C1189.79 424.5 1197.79 422 1206.46 417C1215.46 411.667 1224.29 405.167 1232.96 397.5C1241.96 389.5 1250.13 381.5 1257.46 373.5C1265.13 365.167 1271.13 358 1275.46 352L1279.46 355C1274.79 361 1268.63 368.167 1260.96 376.5C1253.29 384.833 1244.79 393.167 1235.46 401.5C1226.13 409.833 1216.46 416.833 1206.46 422.5C1196.79 427.833 1187.46 430.5 1178.46 430.5C1172.13 430.5 1167.13 429.167 1163.46 426.5C1159.46 424.167 1157.46 420 1157.46 414C1157.46 408.667 1160.63 400.5 1166.96 389.5C1173.29 378.167 1181.46 365.167 1191.46 350.5C1201.79 335.833 1212.96 320.333 1224.96 304C1236.96 287.333 1248.79 271 1260.46 255C1272.46 238.667 1282.96 223.667 1291.96 210ZM1236.96 266C1233.63 266 1231.96 265 1231.96 263C1231.96 261.333 1233.63 260.5 1236.96 260.5H1331.96C1332.96 260.5 1333.96 260.667 1334.96 261C1336.29 261.333 1336.96 262 1336.96 263C1336.96 264.333 1336.29 265.167 1334.96 265.5C1333.96 265.833 1332.96 266 1331.96 266H1236.96ZM1263.97 430.5C1259.3 430.5 1254.13 429.167 1248.47 426.5C1242.47 424.167 1239.47 420.167 1239.47 414.5C1239.47 407.5 1242.63 398.667 1248.97 388C1255.3 377.333 1263.13 366.333 1272.47 355C1281.47 343.667 1290.3 333 1298.97 323C1307.63 313 1314.13 305.167 1318.47 299.5C1322.13 299.833 1326.47 300 1331.47 300C1336.8 300 1341.47 299.833 1345.47 299.5C1340.8 305.167 1334.63 312.333 1326.97 321C1319.63 329.667 1311.8 339 1303.47 349C1295.47 358.667 1287.63 368.167 1279.97 377.5C1272.63 386.833 1266.63 395.167 1261.97 402.5C1257.3 409.833 1254.97 415.167 1254.97 418.5C1254.97 420.833 1255.97 422.5 1257.97 423.5C1259.97 424.5 1263.3 425 1267.97 425C1275.97 425 1284.8 422 1294.47 416C1304.47 409.667 1314.13 402.167 1323.47 393.5C1332.8 384.833 1341.13 376.667 1348.47 369C1355.8 361 1360.97 355.167 1363.97 351.5L1367.97 355C1364.97 358.333 1359.8 364.167 1352.47 372.5C1345.47 380.5 1336.97 389 1326.97 398C1317.3 407 1306.97 414.667 1295.97 421C1285.3 427.333 1274.63 430.5 1263.97 430.5ZM1363.97 261.5C1359.97 261.5 1356.97 260.333 1354.97 258C1352.97 255.333 1351.97 252.333 1351.97 249C1351.97 245.333 1353.97 241.5 1357.97 237.5C1361.97 233.5 1366.13 231.5 1370.47 231.5C1375.13 231.5 1378.47 232.833 1380.47 235.5C1382.47 237.833 1383.47 240.167 1383.47 242.5C1383.47 247.5 1381.47 252 1377.47 256C1373.47 259.667 1368.97 261.5 1363.97 261.5ZM1459.32 336.5C1454.66 336.5 1451.16 335.5 1448.82 333.5C1446.82 331.167 1445.82 328.5 1445.82 325.5C1445.82 322.5 1446.99 319.667 1449.32 317C1451.99 314 1455.49 312.5 1459.82 312.5C1462.49 312.5 1464.82 312.833 1466.82 313.5C1468.82 314.167 1469.82 314.5 1469.82 314.5C1470.16 311.167 1469.32 308.333 1467.32 306C1465.32 303.333 1461.49 302 1455.82 302C1450.49 302 1443.99 304.333 1436.32 309C1428.66 313.667 1420.66 319.833 1412.32 327.5C1404.32 335.167 1396.66 343.5 1389.32 352.5C1382.32 361.5 1376.66 370.667 1372.32 380C1367.99 389 1365.82 397.167 1365.82 404.5C1365.82 412.833 1368.49 418.333 1373.82 421C1379.16 423.667 1384.99 425 1391.32 425C1403.32 425 1415.16 422.167 1426.82 416.5C1438.49 410.5 1449.16 403.333 1458.82 395C1468.82 386.333 1477.32 378 1484.32 370C1491.32 362 1496.32 355.833 1499.32 351.5L1503.82 354.5C1501.16 358.5 1496.16 364.667 1488.82 373C1481.49 381.333 1472.49 390 1461.82 399C1451.49 407.667 1439.99 415.167 1427.32 421.5C1414.66 427.5 1401.32 430.5 1387.32 430.5C1375.99 430.5 1366.49 428 1358.82 423C1350.82 417.667 1346.82 409.5 1346.82 398.5C1346.82 389.167 1349.49 378.833 1354.82 367.5C1360.16 355.833 1367.49 344.833 1376.82 334.5C1386.49 323.833 1397.82 315.167 1410.82 308.5C1424.16 301.5 1438.82 298 1454.82 298C1461.16 298 1466.66 299.333 1471.32 302C1475.99 304.667 1478.32 309.333 1478.32 316C1478.32 322 1476.16 327 1471.82 331C1467.82 334.667 1463.66 336.5 1459.32 336.5ZM1607.55 338.5C1606.22 341.167 1604.22 343.5 1601.55 345.5C1599.22 347.5 1597.39 348.833 1596.05 349.5C1595.05 349.833 1595.39 348.833 1597.05 346.5C1603.05 339.167 1606.89 332.333 1608.55 326C1610.55 319.667 1610.55 314.667 1608.55 311C1606.89 307 1603.55 305 1598.55 305C1591.89 305 1584.05 307.667 1575.05 313C1566.05 318.333 1556.72 325.333 1547.05 334C1537.72 342.667 1528.89 352 1520.55 362C1512.55 371.667 1506.05 381.167 1501.05 390.5C1496.05 399.5 1493.55 407.333 1493.55 414C1493.55 419 1494.55 422.167 1496.55 423.5C1498.55 424.833 1500.55 425.5 1502.55 425.5C1510.22 425.5 1519.05 422 1529.05 415C1539.39 407.667 1549.89 398.5 1560.55 387.5C1571.22 376.5 1581.39 365.333 1591.05 354C1600.72 342.333 1609.05 331.833 1616.05 322.5C1623.39 313.167 1628.39 306.833 1631.05 303.5C1634.72 304.833 1639.05 305.333 1644.05 305C1649.39 304.667 1653.89 304.333 1657.55 304C1656.89 305 1653.39 309.167 1647.05 316.5C1641.05 323.833 1633.72 332.667 1625.05 343C1616.72 353 1608.22 363.333 1599.55 374C1591.22 384.667 1584.22 394 1578.55 402C1572.89 410 1570.05 415.333 1570.05 418C1570.05 421.333 1570.72 423.5 1572.05 424.5C1573.72 425.167 1576.22 425.5 1579.55 425.5C1583.55 425.167 1589.39 423.333 1597.05 420C1604.72 416.333 1614.55 409.333 1626.55 399C1638.55 388.667 1653.05 373.333 1670.05 353C1670.05 353 1670.72 353.5 1672.05 354.5C1673.72 355.5 1674.55 356 1674.55 356C1654.55 379.333 1636.05 397.667 1619.05 411C1602.05 424 1586.55 430.5 1572.55 430.5C1565.22 430.5 1560.22 429.333 1557.55 427C1555.22 424.667 1554.05 421.333 1554.05 417C1554.05 413.667 1555.39 409.667 1558.05 405C1561.05 400 1564.39 395.167 1568.05 390.5C1571.72 385.833 1574.72 382.167 1577.05 379.5C1577.05 379.5 1576.72 379.333 1576.05 379C1575.39 378.667 1575.05 378.5 1575.05 378.5C1567.39 387.833 1559.22 396.5 1550.55 404.5C1541.89 412.5 1533.22 418.833 1524.55 423.5C1516.22 428.167 1508.05 430.5 1500.05 430.5C1491.72 430.5 1485.89 428.5 1482.55 424.5C1479.22 420.167 1477.55 413.667 1477.55 405C1477.55 396.667 1480.22 386.667 1485.55 375C1490.89 363 1498.55 351.333 1508.55 340C1518.55 328.333 1530.55 318.667 1544.55 311C1558.89 303.333 1574.89 299.5 1592.55 299.5C1601.22 299.5 1607.22 301.167 1610.55 304.5C1613.89 307.5 1615.39 311.167 1615.05 315.5C1614.72 319.833 1613.72 324.167 1612.05 328.5C1610.39 332.833 1608.89 336.167 1607.55 338.5Z" fill="black"/>
</svg>
